<?xml version="1.0" encoding="utf-8"?>
<!-- Generator: Adobe Illustrator 19.1.0, SVG Export Plug-In . SVG Version: 6.00 Build 0)  -->
<svg version="1.1" id="Layer_1" xmlns="http://www.w3.org/2000/svg" xmlns:xlink="http://www.w3.org/1999/xlink" x="0px" y="0px"
	 viewBox="0 0 200 200" style="enable-background:new 0 0 200 200;" xml:space="preserve">
<style type="text/css">
	.st0{fill:#FFFFFF;}
</style>
<g>
	<path class="st0" d="M4,100L4,100L4,100c53,72.1,139,72.1,192.1,0l0,0l0,0C143,27.9,57,27.9,4,100z"/>
	<path d="M100,154.4c-34.9,0-69.7-18-96.3-54.1L3.5,100l0.2-0.3C29.4,64.7,63.6,45.5,100,45.5c36.4,0,70.6,19.2,96.3,54.2l0.2,0.3
		l-0.2,0.3C169.7,136.4,134.9,154.4,100,154.4z M4.5,100c52.8,71.3,138.3,71.3,191.1,0C170,65.4,136.1,46.4,100,46.4
		C63.9,46.4,30,65.4,4.5,100z"/>
</g>
</svg>
